M48
; DRILL file {KiCad (7.0.0)} date Fri Mar 10 13:12:55 2023
; FORMAT={-:-/ absolute / inch / decimal}
; #@! TF.CreationDate,2023-03-10T13:12:55+08:00
; #@! TF.GenerationSoftware,Kicad,Pcbnew,(7.0.0)
; #@! TF.FileFunction,MixedPlating,1,2
FMAT,2
INCH
; #@! TA.AperFunction,Plated,PTH,ViaDrill
T1C0.0118
; #@! TA.AperFunction,Plated,PTH,ViaDrill
T2C0.0157
; #@! TA.AperFunction,Plated,PTH,ComponentDrill
T3C0.0394
%
G90
G05
T1
X-3.6713Y-2.2319
X-3.5622Y-1.6945
X-3.4984Y-1.902
X-3.4504Y-2.2677
X-3.3252Y-0.7386
X-3.3134Y-0.8457
X-3.3024Y-2.2681
X-3.2976Y-0.3374
X-3.2976Y-0.4417
X-3.2976Y-0.5406
X-3.2976Y-0.6358
X-3.2929Y-0.2039
X-3.274Y-0.7799
X-3.2457Y-0.2437
X-3.2162Y-2.3811
X-3.198Y-0.7795
X-3.1921Y-0.276
X-3.1787Y-2.3173
X-3.1744Y-2.4819
X-3.1593Y-2.3417
X-3.1545Y-0.4821
X-3.1469Y-2.4496
X-3.1398Y-2.3665
X-3.127Y-0.5089
X-3.1189Y-0.3673
X-3.1179Y-1.6943
X-3.0972Y-0.4823
X-3.0969Y-0.0846
X-3.0917Y-1.6173
X-3.0917Y-2.7346
X-3.0913Y-1.5201
X-3.0705Y-0.5409
X-3.0646Y-2.3874
X-3.0276Y-0.2114
X-3.0012Y-0.2441
X-2.961Y-0.5232
X-2.9606Y-0.2827
X-2.9047Y-0.8689
X-2.8331Y-0.1969
X-2.3323Y-2.3114
X-2.3323Y-2.413
X-2.328Y-0.7835
X-2.2291Y-0.7835
X-2.1524Y-2.7898
X-2.152Y-2.4427
X-2.0213Y-2.3059
X-1.887Y-2.7886
X-1.887Y-2.9012
X-1.8335Y-2.2732
X-1.7819Y-2.4819
X-1.7819Y-2.5413
X-1.7339Y-2.4626
X-1.7339Y-2.528
X-1.7171Y-2.7209
X-1.7035Y-2.6098
X-1.5205Y-0.8095
X-1.5205Y-1.3134
X-1.437Y-2.5854
X-1.4154Y-0.4734
X-1.276Y-0.8299
X-1.2315Y-0.8201
X-1.1835Y-0.522
X-1.1567Y-1.3768
X-1.1146Y-0.8201
X-1.1146Y-0.8604
X-1.0728Y-0.9492
X-1.0728Y-0.9972
X-1.0287Y-1.0654
X-0.9409Y-1.3465
X-0.9398Y-0.9488
X-0.6992Y-2.2256
X-0.6646Y-2.1138
X-0.6059Y-2.2008
X-0.5579Y-2.1098
X-0.5079Y-2.0539
X-0.5028Y-2.1559
X-0.4455Y-2.2033
X-0.3965Y-2.2016
X-0.3949Y-2.3047
X-0.3673Y-2.3315
X-0.3106Y-2.1559
X-0.3087Y-2.3047
X-0.2429Y-2.2016
X-0.1846Y-2.313
X-0.1689Y-2.2256
X-0.1681Y-2.1098
X0.0079Y-2.2327
T2
X-2.9417Y-1.9075
T3
X-3.5394Y-1.4138
X-3.4394Y-1.4138
X-3.398Y-0.2799
X-3.398Y-0.3799
X-3.398Y-0.4799
X-3.398Y-0.5799
X-3.398Y-0.6799
X-3.398Y-0.7799
X-3.398Y-0.8799
X-3.398Y-0.9799
X-3.3394Y-1.4138
X-3.2394Y-1.4138
X-3.1394Y-1.4138
X-3.0394Y-1.4138
X-2.9394Y-1.4138
X-2.8394Y-1.4138
X-2.4335Y-0.5307
X-2.4335Y-0.6307
X-2.4335Y-0.7307
X-2.4335Y-0.8307
X-2.4335Y-0.9307
X-2.4335Y-1.0307
X-2.4335Y-1.1307
X-2.4335Y-1.2307
X-2.4335Y-2.1622
X-2.4335Y-2.2622
X-2.4335Y-2.3622
X-2.4335Y-2.4622
X-2.4335Y-2.5622
X-2.4335Y-2.6622
X-2.4335Y-2.7622
X-2.4335Y-2.8622
X-0.5579Y-2.0146
X-0.4579Y-2.0146
X-0.3579Y-2.0146
X-0.2579Y-2.0146
T0
M30
