%TF.GenerationSoftware,KiCad,Pcbnew,7.0.11*%
%TF.CreationDate,2024-04-20T20:36:00+08:00*%
%TF.ProjectId,UINIO-Monitor,55494e49-4f2d-44d6-9f6e-69746f722e6b,Version 3.2.1*%
%TF.SameCoordinates,PXbd63e30PY4088ff0*%
%TF.FileFunction,Profile,NP*%
%FSLAX46Y46*%
G04 Gerber Fmt 4.6, Leading zero omitted, Abs format (unit mm)*
G04 Created by KiCad (PCBNEW 7.0.11) date 2024-04-20 20:36:00*
%MOMM*%
%LPD*%
G01*
G04 APERTURE LIST*
%TA.AperFunction,Profile*%
%ADD10C,0.100000*%
%TD*%
G04 APERTURE END LIST*
D10*
X-94431320Y-76081320D02*
G75*
G03*
X-95631320Y-76081320I-600000J0D01*
G01*
X-95631320Y-76081320D02*
G75*
G03*
X-94431320Y-76081320I600000J0D01*
G01*
X-66361320Y-76081320D02*
G75*
G03*
X-67561320Y-76081320I-600000J0D01*
G01*
X-67561320Y-76081320D02*
G75*
G03*
X-66361320Y-76081320I600000J0D01*
G01*
X-66361320Y-36251320D02*
G75*
G03*
X-67561320Y-36251320I-600000J0D01*
G01*
X-67561320Y-36251320D02*
G75*
G03*
X-66361320Y-36251320I600000J0D01*
G01*
X-94431320Y-36251320D02*
G75*
G03*
X-95631320Y-36251320I-600000J0D01*
G01*
X-95631320Y-36251320D02*
G75*
G03*
X-94431320Y-36251320I600000J0D01*
G01*
X-90996320Y-75881320D02*
X-90996320Y-74881320D01*
X-70996320Y-75881320D02*
X-90996320Y-75881320D01*
X-70996320Y-74881320D02*
X-70996320Y-75881320D01*
X-90996320Y-74881320D02*
X-70996320Y-74881320D01*
X-69461320Y-2001320D02*
G75*
G03*
X-70661320Y-2001320I-600000J0D01*
G01*
X-70661320Y-2001320D02*
G75*
G03*
X-69461320Y-2001320I600000J0D01*
G01*
X-85361320Y-29951320D02*
G75*
G03*
X-86561320Y-29951320I-600000J0D01*
G01*
X-86561320Y-29951320D02*
G75*
G03*
X-85361320Y-29951320I600000J0D01*
G01*
X-69461320Y-29951320D02*
G75*
G03*
X-70661320Y-29951320I-600000J0D01*
G01*
X-70661320Y-29951320D02*
G75*
G03*
X-69461320Y-29951320I600000J0D01*
G01*
X-85361320Y-2001320D02*
G75*
G03*
X-86561320Y-2001320I-600000J0D01*
G01*
X-86561320Y-2001320D02*
G75*
G03*
X-85361320Y-2001320I600000J0D01*
G01*
X-84261320Y-29951320D02*
X-84261320Y-28951320D01*
X-71761320Y-29951320D02*
X-84261320Y-29951320D01*
X-71761320Y-28951320D02*
X-71761320Y-29951320D01*
X-84261320Y-28951320D02*
X-71761320Y-28951320D01*
X-20201320Y-70821320D02*
X-20201320Y-69621320D01*
X-501320Y-70821320D02*
X-20201320Y-70821320D01*
X-501320Y-69621320D02*
X-501320Y-70821320D01*
X-20201320Y-69621320D02*
X-501320Y-69621320D01*
X-21101320Y-51521320D02*
G75*
G03*
X-22301320Y-51521320I-600000J0D01*
G01*
X-22301320Y-51521320D02*
G75*
G03*
X-21101320Y-51521320I600000J0D01*
G01*
X1598680Y-70821320D02*
G75*
G03*
X398680Y-70821320I-600000J0D01*
G01*
X398680Y-70821320D02*
G75*
G03*
X1598680Y-70821320I600000J0D01*
G01*
X1598680Y-51521320D02*
G75*
G03*
X398680Y-51521320I-600000J0D01*
G01*
X398680Y-51521320D02*
G75*
G03*
X1598680Y-51521320I600000J0D01*
G01*
X-21101320Y-70821320D02*
G75*
G03*
X-22301320Y-70821320I-600000J0D01*
G01*
X-22301320Y-70821320D02*
G75*
G03*
X-21101320Y-70821320I600000J0D01*
G01*
X-31041320Y-74681320D02*
X-31041320Y-52921320D01*
X-30041320Y-74681320D02*
X-31041320Y-74681320D01*
X-30041320Y-52921320D02*
X-30041320Y-74681320D01*
X-31041320Y-52921320D02*
X-30041320Y-52921320D01*
X-29241320Y-75881320D02*
G75*
G03*
X-30441320Y-75881320I-600000J0D01*
G01*
X-30441320Y-75881320D02*
G75*
G03*
X-29241320Y-75881320I600000J0D01*
G01*
X-29241320Y-51721320D02*
G75*
G03*
X-30441320Y-51721320I-600000J0D01*
G01*
X-30441320Y-51721320D02*
G75*
G03*
X-29241320Y-51721320I600000J0D01*
G01*
X-60861320Y-75881320D02*
G75*
G03*
X-62061320Y-75881320I-600000J0D01*
G01*
X-62061320Y-75881320D02*
G75*
G03*
X-60861320Y-75881320I600000J0D01*
G01*
X-60861320Y-51721320D02*
G75*
G03*
X-62061320Y-51721320I-600000J0D01*
G01*
X-62061320Y-51721320D02*
G75*
G03*
X-60861320Y-51721320I600000J0D01*
G01*
X1798680Y-42721320D02*
G75*
G03*
X598680Y-42721320I-600000J0D01*
G01*
X598680Y-42721320D02*
G75*
G03*
X1798680Y-42721320I600000J0D01*
G01*
X1798680Y-2001320D02*
G75*
G03*
X598680Y-2001320I-600000J0D01*
G01*
X598680Y-2001320D02*
G75*
G03*
X1798680Y-2001320I600000J0D01*
G01*
X-60861320Y-42721320D02*
G75*
G03*
X-62061320Y-42721320I-600000J0D01*
G01*
X-62061320Y-42721320D02*
G75*
G03*
X-60861320Y-42721320I600000J0D01*
G01*
X-501320Y-41221320D02*
X-501320Y-3501320D01*
X498680Y-41221320D02*
X-501320Y-41221320D01*
X498680Y-3501320D02*
X498680Y-41221320D01*
X-501320Y-3501320D02*
X498680Y-3501320D01*
X-60261320Y-1370D02*
G75*
G03*
X-63261317Y-2955692I0J-3000350D01*
G01*
X-63261320Y-2955620D02*
X-63261320Y-5001320D01*
X-68261320Y-5001320D02*
X-63261320Y-5001320D01*
X-68261320Y-3001320D02*
X-68261320Y-5001320D01*
X-68261320Y-3001320D02*
G75*
G03*
X-71261320Y-1320I-3000001J-1D01*
G01*
X-84761320Y-1320D02*
X-71261320Y-1320D01*
X-84761320Y-1320D02*
G75*
G03*
X-87761320Y-3001320I1J-3000001D01*
G01*
X-87761320Y-28951320D02*
X-87761320Y-3001320D01*
X-87761320Y-28951320D02*
G75*
G03*
X-84761320Y-31951320I3000001J1D01*
G01*
X-71261320Y-31951320D02*
X-84761320Y-31951320D01*
X-71261320Y-31951320D02*
G75*
G03*
X-68261320Y-28951320I-1J3000001D01*
G01*
X-68261320Y-28951320D02*
X-68261320Y-10001320D01*
X-63261320Y-10001320D02*
X-68261320Y-10001320D01*
X-63261320Y-10001320D02*
X-63261320Y-40221320D01*
X-63261320Y-40221320D02*
X-63261320Y-41721320D01*
X-63261320Y-41721320D02*
G75*
G03*
X-60261320Y-44721320I3000001J1D01*
G01*
X-60261320Y-44721320D02*
X-58261320Y-44721320D01*
X-58261320Y-44721320D02*
X-58261320Y-49721320D01*
X-58261320Y-49721320D02*
X-60261320Y-49721320D01*
X-60261320Y-49721320D02*
G75*
G03*
X-63261320Y-52721320I1J-3000001D01*
G01*
X-63261320Y-52721320D02*
X-63261320Y-67881320D01*
X-63261320Y-67881320D02*
X-64961320Y-67881320D01*
X-64961320Y-37451320D02*
X-64961320Y-67881320D01*
X-64961320Y-37451320D02*
G75*
G03*
X-67961320Y-34451320I-3000001J-1D01*
G01*
X-94031320Y-34451320D02*
X-67961320Y-34451320D01*
X-94031320Y-34451320D02*
G75*
G03*
X-97031320Y-37451320I1J-3000001D01*
G01*
X-97031320Y-74881320D02*
X-97031320Y-37451320D01*
X-97031320Y-74881320D02*
G75*
G03*
X-94031320Y-77881320I3000001J1D01*
G01*
X-67961320Y-77881320D02*
X-94031320Y-77881320D01*
X-67961320Y-77881320D02*
G75*
G03*
X-64961320Y-74881297I1J2999999D01*
G01*
X-64961320Y-74881320D02*
X-64961320Y-72881320D01*
X-63261320Y-72881320D02*
X-64961320Y-72881320D01*
X-63261320Y-74881320D02*
X-63261320Y-72881320D01*
X-63261320Y-74881320D02*
G75*
G03*
X-60261320Y-77881320I3000001J1D01*
G01*
X-60261320Y-77881320D02*
X-31041320Y-77881320D01*
X-31041320Y-77881320D02*
G75*
G03*
X-28041320Y-74881320I-1J3000001D01*
G01*
X-28041320Y-52721320D02*
X-28041320Y-74881320D01*
X-28041320Y-52721320D02*
G75*
G03*
X-31041320Y-49721320I-3000001J-1D01*
G01*
X-53261320Y-49721320D02*
X-31041320Y-49721320D01*
X-53261320Y-44721320D02*
X-53261320Y-49721320D01*
X-7001320Y-44721320D02*
X-53261320Y-44721320D01*
X-7001320Y-49721320D02*
X-7001320Y-44721320D01*
X-20701320Y-49721320D02*
X-7001320Y-49721320D01*
X-20701320Y-49721320D02*
G75*
G03*
X-23701320Y-52721320I0J-3000000D01*
G01*
X-23701320Y-69621320D02*
X-23701320Y-52721320D01*
X-23701320Y-69621320D02*
G75*
G03*
X-20701320Y-72621320I3000000J0D01*
G01*
X-1320Y-72621320D02*
X-20701320Y-72621320D01*
X-1320Y-72621320D02*
G75*
G03*
X2998680Y-69621320I0J3000000D01*
G01*
X2998680Y-52721320D02*
X2998680Y-69621320D01*
X2998680Y-52721320D02*
G75*
G03*
X-1320Y-49721320I-3000000J0D01*
G01*
X-2001320Y-49721320D02*
X-1320Y-49721320D01*
X-2001320Y-44721320D02*
X-2001320Y-49721320D01*
X-2001320Y-44721320D02*
X-1320Y-44721320D01*
X-1320Y-44721320D02*
G75*
G03*
X2998680Y-41721320I0J3000000D01*
G01*
X2998680Y-3001320D02*
X2998680Y-41721320D01*
X2998680Y-3001320D02*
G75*
G03*
X-1320Y-1320I-3000000J0D01*
G01*
X-60261320Y-1320D02*
X-1320Y-1320D01*
X-60861320Y-2001320D02*
G75*
G03*
X-62061320Y-2001320I-600000J0D01*
G01*
X-62061320Y-2001320D02*
G75*
G03*
X-60861320Y-2001320I600000J0D01*
G01*
M02*
