%TF.GenerationSoftware,KiCad,Pcbnew,(6.0.11)*%
%TF.CreationDate,2023-02-17T18:54:49+08:00*%
%TF.ProjectId,UINIO-Monitor,55494e49-4f2d-44d6-9f6e-69746f722e6b,Version 2.0.0*%
%TF.SameCoordinates,PXb7f3f68PY3f1b1b8*%
%TF.FileFunction,Soldermask,Bot*%
%TF.FilePolarity,Negative*%
%FSLAX46Y46*%
G04 Gerber Fmt 4.6, Leading zero omitted, Abs format (unit mm)*
G04 Created by KiCad (PCBNEW (6.0.11)) date 2023-02-17 18:54:49*
%MOMM*%
%LPD*%
G01*
G04 APERTURE LIST*
%ADD10R,1.700000X1.700000*%
%ADD11O,1.700000X1.700000*%
%ADD12C,1.200000*%
G04 APERTURE END LIST*
D10*
%TO.C,J2*%
X-61819999Y-12180000D03*
D11*
X-61819999Y-14720000D03*
X-61819999Y-17260000D03*
X-61819999Y-19800000D03*
X-61819999Y-22340000D03*
X-61819999Y-24880000D03*
X-61819999Y-27420000D03*
X-61819999Y-29960000D03*
X-61819999Y-32500000D03*
%TD*%
D12*
%TO.C,HOLE\u002A\u002A*%
X-80600000Y-53290000D03*
%TD*%
D10*
%TO.C,J6*%
X-69590000Y-54380000D03*
D11*
X-69590000Y-51840000D03*
X-69590000Y-49300000D03*
X-69590000Y-46760000D03*
X-69590000Y-44220000D03*
X-69590000Y-41680000D03*
X-69590000Y-39140000D03*
X-69590000Y-36600000D03*
X-69590000Y-34060000D03*
%TD*%
D12*
%TO.C,HOLE\u002A\u002A*%
X-80600000Y-35190000D03*
%TD*%
D10*
%TO.C,J5*%
X-69600000Y-67770000D03*
D11*
X-69600000Y-65230000D03*
X-69600000Y-62690000D03*
X-69600000Y-60150000D03*
%TD*%
D10*
%TO.C,J3*%
X-6539999Y-51150000D03*
D11*
X-9079999Y-51150000D03*
X-11619999Y-51150000D03*
X-14159999Y-51150000D03*
%TD*%
D12*
%TO.C,HOLE\u002A\u002A*%
X-75350000Y-66650000D03*
%TD*%
D10*
%TO.C,J1*%
X-61849999Y-53640000D03*
D11*
X-61849999Y-56180000D03*
X-61849999Y-58720000D03*
X-61849999Y-61260000D03*
X-61849999Y-63800000D03*
X-61849999Y-66340000D03*
X-61849999Y-68880000D03*
X-61849999Y-71420000D03*
X-61849999Y-73960000D03*
%TD*%
D12*
%TO.C,HOLE\u002A\u002A*%
X-75350000Y-61260000D03*
%TD*%
D10*
%TO.C,J4*%
X-86349999Y-5770000D03*
D11*
X-86349999Y-8310000D03*
X-86349999Y-10850000D03*
X-86349999Y-13390000D03*
X-86349999Y-15930000D03*
X-86349999Y-18470000D03*
X-86349999Y-21010000D03*
X-86349999Y-23550000D03*
X-86349999Y-26090000D03*
%TD*%
M02*
