M48
; DRILL file {KiCad (6.0.11)} date Wed Feb  8 11:45:09 2023
; FORMAT={-:-/ absolute / metric / decimal}
; #@! TF.CreationDate,2023-02-08T11:45:09+08:00
; #@! TF.GenerationSoftware,Kicad,Pcbnew,(6.0.11)
; #@! TF.FileFunction,MixedPlating,1,2
FMAT,2
METRIC
; #@! TA.AperFunction,Plated,PTH,ViaDrill
T1C0.300
; #@! TA.AperFunction,Plated,PTH,ViaDrill
T2C0.400
; #@! TA.AperFunction,Plated,PTH,ComponentDrill
T3C1.000
%
G90
G05
T1
X-59.23Y-57.54
X-59.23Y-60.12
X-59.23Y-62.57
X-59.21Y-67.82
X-54.73Y-62.466
X-54.73Y-66.23
X-54.55Y-13.4
X-54.55Y-16.05
X-54.55Y-18.7
X-54.55Y-21.35
X-54.22Y-57.63
X-53.148Y-59.228
X-51.15Y-63.54
X-50.57Y-64.03
X-50.57Y-69.91
X-49.07Y-70.57
X-48.86Y-63.54
X-47.93Y-73.69
X-47.92Y-69.03
X-46.64Y-64.29
X-46.63Y-70.57
X-44.94Y-63.58
X-44.94Y-70.74
X-44.18Y-62.92
X-44.18Y-65.7
X-39.69Y-21.04
X-39.69Y-33.38
X-39.67Y-20.08
X-38.88Y-21.59
X-34.03Y-20.85
X-29.91Y-21.85
X-29.23Y-20.85
X-26.23Y-27.18
X-22.81Y-34.23
X-15.9Y-56.55
X-15.3Y-54.39
X-12.77Y-54.76
X-12.77Y-58.22
X-12.67Y-52.2
X-10.95Y-55.24
X-9.32Y-57.61
X-7.89Y-54.76
X-6.39Y-55.99
X-5.21Y-56.7
X-5.19Y-55.0
T2
X-54.55Y-25.68
X-54.55Y-29.73
X-53.15Y-68.15
X-48.37Y-57.6
X-36.595Y-12.025
X-28.1Y-8.52
X-27.25Y-25.33
X-14.18Y-53.12
X-3.92Y-53.2
T3
X-61.85Y-53.64
X-61.85Y-56.18
X-61.85Y-58.72
X-61.85Y-61.26
X-61.85Y-63.8
X-61.85Y-66.34
X-61.85Y-68.88
X-61.85Y-71.42
X-61.85Y-73.96
X-61.82Y-12.18
X-61.82Y-14.72
X-61.82Y-17.26
X-61.82Y-19.8
X-61.82Y-22.34
X-61.82Y-24.88
X-61.82Y-27.42
X-61.82Y-29.96
X-61.82Y-32.5
X-14.16Y-51.15
X-11.62Y-51.15
X-9.08Y-51.15
X-6.54Y-51.15
T0
M30
