M48
; DRILL file {KiCad 7.0.7} date Fri Sep  1 15:22:12 2023
; FORMAT={-:-/ absolute / metric / decimal}
; #@! TF.CreationDate,2023-09-01T15:22:12+08:00
; #@! TF.GenerationSoftware,Kicad,Pcbnew,7.0.7
; #@! TF.FileFunction,MixedPlating,1,2
FMAT,2
METRIC
; #@! TA.AperFunction,Plated,PTH,ViaDrill
T1C0.300
; #@! TA.AperFunction,Plated,PTH,ViaDrill
T2C0.400
; #@! TA.AperFunction,Plated,PTH,ComponentDrill
T3C1.000
%
G90
G05
T1
X-93.25Y-56.69
X-90.48Y-43.04
X-88.86Y-48.31
X-87.64Y-57.6
X-84.46Y-18.76
X-84.16Y-21.48
X-83.88Y-57.61
X-83.76Y-8.57
X-83.76Y-11.22
X-83.76Y-13.73
X-83.76Y-16.15
X-83.64Y-5.18
X-83.16Y-19.81
X-82.44Y-6.19
X-81.691Y-60.48
X-81.23Y-19.8
X-81.08Y-7.01
X-80.74Y-58.86
X-80.63Y-63.04
X-80.245Y-59.48
X-80.125Y-12.245
X-79.93Y-62.22
X-79.75Y-60.11
X-79.425Y-12.925
X-79.22Y-9.33
X-79.196Y-43.035
X-78.67Y-12.25
X-78.66Y-2.15
X-78.53Y-41.08
X-78.53Y-69.46
X-78.52Y-38.61
X-77.99Y-13.74
X-77.84Y-60.64
X-76.9Y-5.37
X-76.23Y-6.2
X-75.21Y-13.29
X-75.2Y-7.18
X-73.78Y-22.07
X-71.96Y-5.0
X-59.24Y-58.71
X-59.24Y-61.29
X-59.13Y-19.9
X-56.62Y-19.9
X-54.67Y-70.86
X-54.66Y-62.045
X-51.34Y-58.57
X-47.93Y-70.83
X-47.93Y-73.69
X-46.57Y-57.74
X-45.26Y-63.04
X-45.26Y-64.55
X-44.04Y-62.55
X-44.04Y-64.21
X-43.615Y-69.11
X-43.27Y-66.29
X-38.62Y-20.56
X-38.62Y-33.36
X-36.5Y-65.67
X-35.95Y-12.025
X-32.41Y-21.08
X-31.28Y-20.83
X-30.06Y-13.26
X-29.38Y-34.97
X-28.31Y-20.83
X-28.31Y-21.855
X-27.25Y-24.11
X-27.25Y-25.33
X-26.13Y-27.06
X-23.9Y-34.2
X-23.87Y-24.1
X-17.76Y-56.53
X-16.88Y-53.69
X-15.39Y-55.9
X-14.17Y-53.59
X-12.9Y-52.17
X-12.77Y-54.76
X-11.315Y-55.965
X-10.07Y-55.92
X-10.03Y-58.54
X-9.33Y-59.22
X-7.89Y-54.76
X-7.84Y-58.54
X-5.16Y-56.75
X-4.64Y-58.75
X-4.29Y-56.53
X-4.2Y-53.6
X0.2Y-56.71
T2
X-74.72Y-48.45
T3
X-89.9Y-35.91
X-87.36Y-35.91
X-86.31Y-7.11
X-86.31Y-9.65
X-86.31Y-12.19
X-86.31Y-14.73
X-86.31Y-17.27
X-86.31Y-19.81
X-86.31Y-22.35
X-86.31Y-24.89
X-84.82Y-35.91
X-82.28Y-35.91
X-79.74Y-35.91
X-77.2Y-35.91
X-74.66Y-35.91
X-72.12Y-35.91
X-61.81Y-13.48
X-61.81Y-16.02
X-61.81Y-18.56
X-61.81Y-21.1
X-61.81Y-23.64
X-61.81Y-26.18
X-61.81Y-28.72
X-61.81Y-31.26
X-61.81Y-54.92
X-61.81Y-57.46
X-61.81Y-60.0
X-61.81Y-62.54
X-61.81Y-65.08
X-61.81Y-67.62
X-61.81Y-70.16
X-61.81Y-72.7
X-14.17Y-51.17
X-11.63Y-51.17
X-9.09Y-51.17
X-6.55Y-51.17
T0
M30
