%TF.GenerationSoftware,KiCad,Pcbnew,(6.0.11)*%
%TF.CreationDate,2023-02-08T11:45:05+08:00*%
%TF.ProjectId,UINIO-Monitor,55494e49-4f2d-44d6-9f6e-69746f722e6b,Version 2.0.0*%
%TF.SameCoordinates,PXa62d810PY3b58df0*%
%TF.FileFunction,Paste,Top*%
%TF.FilePolarity,Positive*%
%FSLAX46Y46*%
G04 Gerber Fmt 4.6, Leading zero omitted, Abs format (unit mm)*
G04 Created by KiCad (PCBNEW (6.0.11)) date 2023-02-08 11:45:05*
%MOMM*%
%LPD*%
G01*
G04 APERTURE LIST*
G04 Aperture macros list*
%AMRoundRect*
0 Rectangle with rounded corners*
0 $1 Rounding radius*
0 $2 $3 $4 $5 $6 $7 $8 $9 X,Y pos of 4 corners*
0 Add a 4 corners polygon primitive as box body*
4,1,4,$2,$3,$4,$5,$6,$7,$8,$9,$2,$3,0*
0 Add four circle primitives for the rounded corners*
1,1,$1+$1,$2,$3*
1,1,$1+$1,$4,$5*
1,1,$1+$1,$6,$7*
1,1,$1+$1,$8,$9*
0 Add four rect primitives between the rounded corners*
20,1,$1+$1,$2,$3,$4,$5,0*
20,1,$1+$1,$4,$5,$6,$7,0*
20,1,$1+$1,$6,$7,$8,$9,0*
20,1,$1+$1,$8,$9,$2,$3,0*%
G04 Aperture macros list end*
%ADD10RoundRect,0.200000X0.275000X-0.200000X0.275000X0.200000X-0.275000X0.200000X-0.275000X-0.200000X0*%
%ADD11RoundRect,0.140000X-0.170000X0.140000X-0.170000X-0.140000X0.170000X-0.140000X0.170000X0.140000X0*%
%ADD12R,1.000000X0.600000*%
%ADD13RoundRect,0.140000X-0.140000X-0.170000X0.140000X-0.170000X0.140000X0.170000X-0.140000X0.170000X0*%
%ADD14RoundRect,0.225000X0.250000X-0.225000X0.250000X0.225000X-0.250000X0.225000X-0.250000X-0.225000X0*%
%ADD15RoundRect,0.112500X-2.387500X-0.112500X2.387500X-0.112500X2.387500X0.112500X-2.387500X0.112500X0*%
%ADD16RoundRect,0.135000X-0.185000X0.135000X-0.185000X-0.135000X0.185000X-0.135000X0.185000X0.135000X0*%
%ADD17RoundRect,0.225000X-0.250000X0.225000X-0.250000X-0.225000X0.250000X-0.225000X0.250000X0.225000X0*%
%ADD18RoundRect,0.140000X0.170000X-0.140000X0.170000X0.140000X-0.170000X0.140000X-0.170000X-0.140000X0*%
%ADD19RoundRect,0.135000X0.185000X-0.135000X0.185000X0.135000X-0.185000X0.135000X-0.185000X-0.135000X0*%
%ADD20R,0.300000X1.800000*%
%ADD21R,2.000000X1.500000*%
%ADD22RoundRect,0.150000X0.150000X-0.512500X0.150000X0.512500X-0.150000X0.512500X-0.150000X-0.512500X0*%
%ADD23R,1.500000X0.280000*%
%ADD24R,1.500000X2.000000*%
%ADD25R,0.532000X1.070000*%
%ADD26R,0.900000X1.200000*%
%ADD27RoundRect,0.200000X-0.275000X0.200000X-0.275000X-0.200000X0.275000X-0.200000X0.275000X0.200000X0*%
%ADD28RoundRect,0.095000X-0.095000X1.405000X-0.095000X-1.405000X0.095000X-1.405000X0.095000X1.405000X0*%
%ADD29RoundRect,0.135000X-0.135000X-0.185000X0.135000X-0.185000X0.135000X0.185000X-0.135000X0.185000X0*%
%ADD30RoundRect,0.095000X-2.405000X-0.095000X2.405000X-0.095000X2.405000X0.095000X-2.405000X0.095000X0*%
G04 APERTURE END LIST*
D10*
%TO.C,R6*%
X-25480000Y-35015000D03*
X-25480000Y-33365000D03*
%TD*%
D11*
%TO.C,C9*%
X-4320000Y-55010000D03*
X-4320000Y-55970000D03*
%TD*%
D12*
%TO.C,U2*%
X-48375000Y-56026000D03*
X-48375000Y-55076000D03*
X-48375000Y-54126000D03*
X-50975000Y-54126000D03*
X-50975000Y-56026000D03*
%TD*%
D11*
%TO.C,C13*%
X-2300000Y-57570000D03*
X-2300000Y-58530000D03*
%TD*%
D13*
%TO.C,C7*%
X-20210000Y-53310000D03*
X-19250000Y-53310000D03*
%TD*%
D14*
%TO.C,C2*%
X-46660000Y-73705000D03*
X-46660000Y-72155000D03*
%TD*%
D15*
%TO.C,P1*%
X-16185000Y-17820000D03*
X-16185000Y-18830000D03*
X-16185000Y-19830000D03*
X-16185000Y-20830000D03*
X-16185000Y-21830000D03*
X-16185000Y-22830000D03*
X-16185000Y-23830000D03*
X-16185000Y-24830000D03*
X-16185000Y-25830000D03*
X-16185000Y-26830000D03*
%TD*%
D16*
%TO.C,R10*%
X-17360000Y-57320000D03*
X-17360000Y-58340000D03*
%TD*%
D17*
%TO.C,C6*%
X-53150000Y-54415000D03*
X-53150000Y-55965000D03*
%TD*%
D14*
%TO.C,C3*%
X-28130000Y-12025000D03*
X-28130000Y-10475000D03*
%TD*%
D18*
%TO.C,C10*%
X-19430000Y-58330000D03*
X-19430000Y-57370000D03*
%TD*%
D19*
%TO.C,R8*%
X-4330000Y-58550000D03*
X-4330000Y-57530000D03*
%TD*%
D11*
%TO.C,C12*%
X-320000Y-57570000D03*
X-320000Y-58530000D03*
%TD*%
D20*
%TO.C,FPC3*%
X-9570000Y-53515000D03*
X-10070000Y-53515000D03*
X-10570000Y-53515000D03*
X-11070000Y-53515000D03*
D21*
X-12770000Y-55965000D03*
X-7870000Y-55965000D03*
%TD*%
D22*
%TO.C,U3*%
X-2880000Y-55487500D03*
X-980000Y-55487500D03*
X-1930000Y-53212500D03*
%TD*%
D11*
%TO.C,C8*%
X460000Y-55010000D03*
X460000Y-55970000D03*
%TD*%
D17*
%TO.C,C5*%
X-34620000Y-10475000D03*
X-34620000Y-12025000D03*
%TD*%
D23*
%TO.C,FPC1*%
X-52570000Y-61500000D03*
X-52570000Y-62000000D03*
X-52570000Y-62500000D03*
X-52570000Y-63000000D03*
X-52570000Y-63500000D03*
X-52570000Y-64000000D03*
X-52570000Y-64500000D03*
X-52570000Y-65000000D03*
X-52570000Y-65500000D03*
X-52570000Y-66000000D03*
D24*
X-49970000Y-67750000D03*
X-49970000Y-59750000D03*
%TD*%
D25*
%TO.C,VT1*%
X-35440000Y-34979000D03*
X-33540000Y-34979000D03*
X-34490000Y-32709000D03*
%TD*%
D10*
%TO.C,R3*%
X-54670000Y-73745000D03*
X-54670000Y-72095000D03*
%TD*%
%TO.C,R2*%
X-31640000Y-35015000D03*
X-31640000Y-33365000D03*
%TD*%
D26*
%TO.C,D1*%
X-19950000Y-55090000D03*
X-16650000Y-55090000D03*
%TD*%
D27*
%TO.C,R4*%
X-49240000Y-72095000D03*
X-49240000Y-73745000D03*
%TD*%
D28*
%TO.C,P3*%
X-215000Y-61180000D03*
X-915000Y-61180000D03*
X-1615000Y-61180000D03*
X-2315000Y-61180000D03*
X-3015000Y-61180000D03*
X-3715000Y-61180000D03*
X-4415000Y-61180000D03*
X-5115000Y-61180000D03*
X-5815000Y-61180000D03*
X-6515000Y-61180000D03*
X-7215000Y-61180000D03*
X-7915000Y-61180000D03*
X-8625000Y-61180000D03*
X-9325000Y-61180000D03*
X-10025000Y-61180000D03*
X-10725000Y-61180000D03*
X-11425000Y-61180000D03*
X-12125000Y-61180000D03*
X-12825000Y-61180000D03*
X-13525000Y-61180000D03*
X-14225000Y-61180000D03*
X-14925000Y-61180000D03*
X-15625000Y-61180000D03*
X-16325000Y-61180000D03*
X-17025000Y-61180000D03*
X-17725000Y-61180000D03*
X-18435000Y-61180000D03*
X-19135000Y-61180000D03*
X-19825000Y-61180000D03*
X-20525000Y-61180000D03*
%TD*%
D18*
%TO.C,C11*%
X-20580000Y-58330000D03*
X-20580000Y-57370000D03*
%TD*%
D25*
%TO.C,VT2*%
X-52916000Y-73709000D03*
X-51016000Y-73709000D03*
X-51966000Y-71439000D03*
%TD*%
D19*
%TO.C,R9*%
X-15300000Y-58340000D03*
X-15300000Y-57320000D03*
%TD*%
D29*
%TO.C,R7*%
X-17390000Y-53320000D03*
X-16370000Y-53320000D03*
%TD*%
D12*
%TO.C,U1*%
X-30070000Y-12372000D03*
X-30070000Y-11422000D03*
X-30070000Y-10472000D03*
X-32670000Y-10472000D03*
X-32670000Y-12372000D03*
%TD*%
D10*
%TO.C,R5*%
X-44920000Y-73755000D03*
X-44920000Y-72105000D03*
%TD*%
D17*
%TO.C,C4*%
X-46200000Y-54415000D03*
X-46200000Y-55965000D03*
%TD*%
D30*
%TO.C,P2*%
X-40030000Y-62900000D03*
X-40030000Y-63600000D03*
X-40030000Y-64300000D03*
X-40030000Y-65000000D03*
X-40030000Y-65700000D03*
X-40030000Y-66400000D03*
X-40030000Y-67100000D03*
X-40030000Y-67800000D03*
X-40030000Y-68500000D03*
X-40030000Y-69200000D03*
X-40030000Y-69900000D03*
X-40030000Y-70600000D03*
%TD*%
D23*
%TO.C,FPC2*%
X-36550000Y-20080000D03*
X-36550000Y-20580000D03*
X-36550000Y-21080000D03*
X-36550000Y-21580000D03*
X-36550000Y-22080000D03*
X-36550000Y-22580000D03*
X-36550000Y-23080000D03*
X-36550000Y-23580000D03*
X-36550000Y-24080000D03*
X-36550000Y-24580000D03*
D24*
X-33950000Y-26330000D03*
X-33950000Y-18330000D03*
%TD*%
D27*
%TO.C,R1*%
X-37320000Y-33365000D03*
X-37320000Y-35015000D03*
%TD*%
D17*
%TO.C,C1*%
X-27240000Y-33415000D03*
X-27240000Y-34965000D03*
%TD*%
M02*
