%TF.GenerationSoftware,KiCad,Pcbnew,(7.0.0)*%
%TF.CreationDate,2023-03-09T19:33:40+08:00*%
%TF.ProjectId,UINIO-Monitor,55494e49-4f2d-44d6-9f6e-69746f722e6b,Version 3.0.0*%
%TF.SameCoordinates,PXbd63908PY4089518*%
%TF.FileFunction,Profile,NP*%
%FSLAX46Y46*%
G04 Gerber Fmt 4.6, Leading zero omitted, Abs format (unit mm)*
G04 Created by KiCad (PCBNEW (7.0.0)) date 2023-03-09 19:33:40*
%MOMM*%
%LPD*%
G01*
G04 APERTURE LIST*
%TA.AperFunction,Profile*%
%ADD10C,0.100000*%
%TD*%
G04 APERTURE END LIST*
D10*
X1799999Y-42720000D02*
G75*
G03*
X1799999Y-42720000I-600000J0D01*
G01*
X-87760001Y-28950000D02*
X-87760001Y-3000000D01*
X-84260001Y-29950000D02*
X-84260001Y-28950000D01*
X1599999Y-70820000D02*
G75*
G03*
X1599999Y-70820000I-600000J0D01*
G01*
X-68260001Y-74880000D02*
X-68260001Y-72880000D01*
X-60260001Y-49720059D02*
G75*
G03*
X-63260001Y-52720000I-79J-2999921D01*
G01*
X-87760000Y-28950000D02*
G75*
G03*
X-84760001Y-31950000I3000020J20D01*
G01*
X-68260000Y-37450000D02*
G75*
G03*
X-71260001Y-34450000I-2999980J20D01*
G01*
X-97330001Y-34450059D02*
G75*
G03*
X-100330001Y-37450000I-79J-2999921D01*
G01*
X-1Y-72620059D02*
G75*
G03*
X2999999Y-69620000I-79J3000079D01*
G01*
X-68260001Y-3000000D02*
X-68260001Y-5000000D01*
X-31040001Y-74680000D02*
X-31040001Y-52920000D01*
X-71260001Y-31950000D02*
X-84760001Y-31950000D01*
X-63260001Y-62880000D02*
X-68260001Y-62880000D01*
X-63260001Y-74880000D02*
X-63260001Y-72880000D01*
X-2000001Y-44720000D02*
X-1Y-44720000D01*
X-58260001Y-49720000D02*
X-60260001Y-49720000D01*
X-84760001Y-59D02*
G75*
G03*
X-87760001Y-3000000I-79J-2999921D01*
G01*
X499999Y-41220000D02*
X-500001Y-41220000D01*
X-60860001Y-42720000D02*
G75*
G03*
X-60860001Y-42720000I-600000J0D01*
G01*
X-500001Y-3500000D02*
X499999Y-3500000D01*
X-1Y-72620000D02*
X-20700001Y-72620000D01*
X1799999Y-2000000D02*
G75*
G03*
X1799999Y-2000000I-600000J0D01*
G01*
X-60860001Y-75880000D02*
G75*
G03*
X-60860001Y-75880000I-600000J0D01*
G01*
X-500001Y-70820000D02*
X-20200001Y-70820000D01*
X-69660001Y-36250000D02*
G75*
G03*
X-69660001Y-36250000I-600000J0D01*
G01*
X-69460001Y-29950000D02*
G75*
G03*
X-69460001Y-29950000I-600000J0D01*
G01*
X-63260000Y-41720000D02*
G75*
G03*
X-60260001Y-44720000I3000020J20D01*
G01*
X499999Y-3500000D02*
X499999Y-41220000D01*
X-97730001Y-36250000D02*
G75*
G03*
X-97730001Y-36250000I-600000J0D01*
G01*
X3000000Y-3000000D02*
G75*
G03*
X-1Y0I-2999980J20D01*
G01*
X-63260001Y-72880000D02*
X-68260001Y-72880000D01*
X-60260001Y-40D02*
G75*
G03*
X-63260002Y-2950287I-79J-3000340D01*
G01*
X-71260001Y-77880000D02*
X-97330001Y-77880000D01*
X-71260001Y-31950059D02*
G75*
G03*
X-68260001Y-28950000I-79J3000079D01*
G01*
X-500001Y-41220000D02*
X-500001Y-3500000D01*
X-60260001Y0D02*
X-1Y0D01*
X-29240001Y-75880000D02*
G75*
G03*
X-29240001Y-75880000I-600000J0D01*
G01*
X-74295001Y-74880000D02*
X-74295001Y-75880000D01*
X-63260001Y-15000000D02*
X-68260001Y-15000000D01*
X-20700001Y-49720000D02*
X-12000001Y-49720000D01*
X-74295001Y-75880000D02*
X-94295001Y-75880000D01*
X-69660001Y-76080000D02*
G75*
G03*
X-69660001Y-76080000I-600000J0D01*
G01*
X-20700001Y-49720059D02*
G75*
G03*
X-23700001Y-52720000I-79J-2999921D01*
G01*
X-28040001Y-52720000D02*
X-28040001Y-74880000D01*
X-30040001Y-74680000D02*
X-31040001Y-74680000D01*
X-84760001Y0D02*
X-71260001Y0D01*
X-23700000Y-69620000D02*
G75*
G03*
X-20700001Y-72620000I3000020J20D01*
G01*
X-21100001Y-70820000D02*
G75*
G03*
X-21100001Y-70820000I-600000J0D01*
G01*
X-63260001Y-15000000D02*
X-63260001Y-40220000D01*
X-100330001Y-74880000D02*
X-100330001Y-37450000D01*
X-12000001Y-44720000D02*
X-48260001Y-44720000D01*
X-500001Y-69620000D02*
X-500001Y-70820000D01*
X-63260000Y-74880000D02*
G75*
G03*
X-60260001Y-77880000I3000020J20D01*
G01*
X-31040001Y-52920000D02*
X-30040001Y-52920000D01*
X-23700001Y-69620000D02*
X-23700001Y-52720000D01*
X-71260001Y-77880059D02*
G75*
G03*
X-68260001Y-74880003I-79J3000079D01*
G01*
X-20200001Y-70820000D02*
X-20200001Y-69620000D01*
X-100330000Y-74880000D02*
G75*
G03*
X-97330001Y-77880000I3000020J20D01*
G01*
X-68260001Y-28950000D02*
X-68260001Y-15000000D01*
X-60860001Y-51720000D02*
G75*
G03*
X-60860001Y-51720000I-600000J0D01*
G01*
X-94295001Y-74880000D02*
X-74295001Y-74880000D01*
X-21100001Y-51520000D02*
G75*
G03*
X-21100001Y-51520000I-600000J0D01*
G01*
X-12000001Y-49720000D02*
X-12000001Y-44720000D01*
X-29240001Y-51720000D02*
G75*
G03*
X-29240001Y-51720000I-600000J0D01*
G01*
X-20200001Y-69620000D02*
X-500001Y-69620000D01*
X-60860001Y-2000000D02*
G75*
G03*
X-60860001Y-2000000I-600000J0D01*
G01*
X-84260001Y-28950000D02*
X-71760001Y-28950000D01*
X-97730001Y-76080000D02*
G75*
G03*
X-97730001Y-76080000I-600000J0D01*
G01*
X-48260001Y-44720000D02*
X-48260001Y-49720000D01*
X-69460001Y-2000000D02*
G75*
G03*
X-69460001Y-2000000I-600000J0D01*
G01*
X-68260001Y-5000000D02*
X-63260001Y-5000000D01*
X-58260001Y-44720000D02*
X-58260001Y-49720000D01*
X-63260001Y-52720000D02*
X-63260001Y-62880000D01*
X-85360001Y-2000000D02*
G75*
G03*
X-85360001Y-2000000I-600000J0D01*
G01*
X-97330001Y-34450000D02*
X-71260001Y-34450000D01*
X-2000001Y-44720000D02*
X-2000001Y-49720000D01*
X-68260001Y-37450000D02*
X-68260001Y-62880000D01*
X-71760001Y-29950000D02*
X-84260001Y-29950000D01*
X2999999Y-3000000D02*
X2999999Y-41720000D01*
X-48260001Y-49720000D02*
X-31040001Y-49720000D01*
X-31040001Y-77880059D02*
G75*
G03*
X-28040001Y-74880000I-79J3000079D01*
G01*
X-63260001Y-40220000D02*
X-63260001Y-41720000D01*
X-71760001Y-28950000D02*
X-71760001Y-29950000D01*
X-63260001Y-2950300D02*
X-63260001Y-5000000D01*
X-85360001Y-29950000D02*
G75*
G03*
X-85360001Y-29950000I-600000J0D01*
G01*
X-28040000Y-52720000D02*
G75*
G03*
X-31040001Y-49720000I-2999980J20D01*
G01*
X2999999Y-52720000D02*
X2999999Y-69620000D01*
X-60260001Y-44720000D02*
X-58260001Y-44720000D01*
X-2000001Y-49720000D02*
X-1Y-49720000D01*
X1599999Y-51520000D02*
G75*
G03*
X1599999Y-51520000I-600000J0D01*
G01*
X-1Y-44720059D02*
G75*
G03*
X2999999Y-41720000I-79J3000079D01*
G01*
X3000000Y-52720000D02*
G75*
G03*
X-1Y-49720000I-2999980J20D01*
G01*
X-60260001Y-77880000D02*
X-31040001Y-77880000D01*
X-30040001Y-52920000D02*
X-30040001Y-74680000D01*
X-94295001Y-75880000D02*
X-94295001Y-74880000D01*
X-68260000Y-3000000D02*
G75*
G03*
X-71260001Y0I-2999980J20D01*
G01*
M02*
