M48
; DRILL file {KiCad (6.0.11)} date Fri Feb 17 18:54:56 2023
; FORMAT={-:-/ absolute / metric / decimal}
; #@! TF.CreationDate,2023-02-17T18:54:56+08:00
; #@! TF.GenerationSoftware,Kicad,Pcbnew,(6.0.11)
; #@! TF.FileFunction,MixedPlating,1,2
FMAT,2
METRIC
; #@! TA.AperFunction,Plated,PTH,ViaDrill
T1C0.300
; #@! TA.AperFunction,Plated,PTH,ViaDrill
T2C0.400
; #@! TA.AperFunction,Plated,PTH,ComponentDrill
T3C1.000
; #@! TA.AperFunction,Plated,PTH,ComponentDrill
T4C1.200
%
G90
G05
T1
X-85.28Y-14.69
X-85.28Y-17.21
X-82.87Y-12.67
X-82.85Y-6.68
X-82.22Y-5.98
X-82.01Y-8.96
X-82.0Y-12.03
X-80.82Y-13.099
X-80.81Y-19.7
X-80.511Y-10.742
X-79.41Y-12.03
X-79.17Y-44.16
X-79.11Y-63.95
X-78.71Y-12.65
X-78.66Y-2.18
X-78.25Y-10.13
X-77.32Y-19.91
X-77.27Y-8.96
X-76.75Y-6.67
X-76.25Y-9.63
X-75.35Y-46.44
X-75.21Y-13.29
X-74.36Y-8.13
X-71.96Y-5.0
X-71.31Y-62.95
X-71.31Y-64.82
X-59.95Y-59.436
X-59.95Y-61.976
X-59.95Y-65.11
X-59.95Y-68.28
X-54.67Y-70.66
X-54.55Y-13.4
X-54.55Y-16.05
X-54.55Y-18.7
X-54.55Y-21.35
X-52.06Y-54.942
X-50.02Y-57.052
X-49.38Y-62.54
X-48.3Y-63.54
X-47.93Y-69.03
X-47.93Y-73.69
X-47.64Y-63.04
X-46.29Y-66.37
X-45.84Y-65.03
X-45.08Y-65.67
X-44.05Y-64.27
X-43.37Y-62.05
X-43.37Y-68.82
X-39.69Y-21.04
X-39.69Y-33.38
X-39.67Y-20.08
X-38.88Y-21.59
X-34.03Y-20.85
X-29.91Y-21.85
X-29.23Y-20.85
X-26.23Y-27.18
X-22.81Y-34.23
X-18.93Y-54.3
X-14.27Y-55.08
X-14.21Y-58.37
X-13.34Y-57.84
X-12.77Y-54.76
X-11.315Y-55.965
X-10.575Y-57.835
X-10.07Y-55.92
X-9.32Y-57.61
X-8.21Y-58.29
X-7.89Y-54.76
X-6.515Y-59.085
X-5.32Y-55.92
X-4.75Y-58.55
X-0.25Y-56.72
T2
X-83.62Y-2.06
X-77.3Y-23.55
X-72.06Y-23.55
X-54.55Y-25.68
X-54.55Y-29.73
X-52.658Y-57.858
X-46.55Y-57.782
X-36.595Y-12.025
X-28.1Y-8.52
X-27.25Y-25.33
X-14.17Y-53.59
X-3.97Y-53.6
T3
X-86.35Y-5.77
X-86.35Y-8.31
X-86.35Y-10.85
X-86.35Y-13.39
X-86.35Y-15.93
X-86.35Y-18.47
X-86.35Y-21.01
X-86.35Y-23.55
X-86.35Y-26.09
X-69.6Y-60.15
X-69.6Y-62.69
X-69.6Y-65.23
X-69.6Y-67.77
X-69.59Y-34.06
X-69.59Y-36.6
X-69.59Y-39.14
X-69.59Y-41.68
X-69.59Y-44.22
X-69.59Y-46.76
X-69.59Y-49.3
X-69.59Y-51.84
X-69.59Y-54.38
X-61.85Y-53.64
X-61.85Y-56.18
X-61.85Y-58.72
X-61.85Y-61.26
X-61.85Y-63.8
X-61.85Y-66.34
X-61.85Y-68.88
X-61.85Y-71.42
X-61.85Y-73.96
X-61.82Y-12.18
X-61.82Y-14.72
X-61.82Y-17.26
X-61.82Y-19.8
X-61.82Y-22.34
X-61.82Y-24.88
X-61.82Y-27.42
X-61.82Y-29.96
X-61.82Y-32.5
X-14.16Y-51.15
X-11.62Y-51.15
X-9.08Y-51.15
X-6.54Y-51.15
T4
X-80.6Y-35.19
X-80.6Y-53.29
X-75.35Y-61.26
X-75.35Y-66.65
T0
M30
