M48
; DRILL file {KiCad 7.0.11} date Mon Apr 22 18:40:36 2024
; FORMAT={-:-/ absolute / metric / decimal}
; #@! TF.CreationDate,2024-04-22T18:40:36+08:00
; #@! TF.GenerationSoftware,Kicad,Pcbnew,7.0.11
; #@! TF.FileFunction,MixedPlating,1,2
FMAT,2
METRIC
; #@! TA.AperFunction,Plated,PTH,ViaDrill
T1C0.300
; #@! TA.AperFunction,Plated,PTH,ViaDrill
T2C0.400
; #@! TA.AperFunction,Plated,PTH,ViaDrill
T3C0.600
; #@! TA.AperFunction,Plated,PTH,ComponentDrill
T4C1.000
; #@! TA.AperFunction,Plated,PTH,ComponentDrill
T5C2.200
%
G90
G05
T1
X-93.251Y-56.691
X-90.481Y-43.041
X-88.861Y-48.311
X-87.641Y-57.601
X-84.461Y-18.761
X-84.161Y-21.481
X-83.881Y-57.611
X-83.761Y-8.571
X-83.761Y-11.221
X-83.761Y-13.731
X-83.761Y-16.151
X-83.641Y-5.181
X-83.161Y-19.811
X-82.441Y-6.191
X-81.692Y-60.481
X-81.231Y-19.801
X-81.081Y-7.011
X-80.741Y-58.861
X-80.631Y-63.041
X-80.246Y-59.481
X-80.126Y-12.246
X-79.931Y-62.221
X-79.751Y-60.111
X-79.426Y-12.926
X-79.221Y-9.331
X-79.197Y-43.036
X-78.671Y-12.251
X-78.661Y-2.151
X-78.531Y-41.081
X-78.531Y-69.461
X-78.521Y-38.611
X-77.991Y-13.741
X-77.841Y-60.641
X-76.901Y-5.371
X-76.231Y-6.201
X-75.211Y-13.291
X-75.201Y-7.181
X-73.781Y-22.071
X-71.961Y-5.001
X-59.241Y-58.711
X-59.241Y-61.291
X-59.131Y-19.901
X-56.621Y-19.901
X-54.671Y-70.861
X-54.661Y-62.046
X-51.341Y-58.571
X-47.931Y-70.831
X-47.931Y-73.691
X-46.571Y-57.741
X-45.261Y-63.041
X-45.261Y-64.551
X-44.041Y-62.551
X-44.041Y-64.211
X-43.616Y-69.111
X-43.271Y-66.291
X-38.621Y-20.562
X-38.621Y-33.361
X-36.501Y-65.671
X-35.951Y-12.026
X-32.411Y-21.081
X-31.281Y-20.831
X-30.061Y-13.261
X-29.381Y-34.971
X-28.311Y-20.831
X-28.311Y-21.856
X-27.251Y-24.111
X-27.251Y-25.331
X-26.131Y-27.061
X-23.901Y-34.201
X-23.871Y-24.101
X-17.761Y-56.531
X-16.881Y-53.691
X-15.391Y-55.901
X-14.171Y-53.591
X-12.901Y-52.171
X-12.771Y-54.761
X-11.316Y-55.966
X-10.071Y-55.921
X-10.031Y-58.541
X-9.331Y-59.221
X-7.891Y-54.761
X-7.841Y-58.541
X-5.161Y-56.751
X-4.641Y-58.751
X-4.291Y-56.531
X-4.201Y-53.601
X0.199Y-56.711
T2
X-74.721Y-48.451
T3
X-64.09Y-68.92
X-64.09Y-70.37
X-64.09Y-71.82
T4
X-89.901Y-35.911
X-87.361Y-35.911
X-86.311Y-7.111
X-86.311Y-9.651
X-86.311Y-12.191
X-86.311Y-14.731
X-86.311Y-17.271
X-86.311Y-19.811
X-86.311Y-22.351
X-86.311Y-24.891
X-84.821Y-35.911
X-82.281Y-35.911
X-79.741Y-35.911
X-77.201Y-35.911
X-74.661Y-35.911
X-72.121Y-35.911
X-61.811Y-13.481
X-61.811Y-16.021
X-61.811Y-18.561
X-61.811Y-21.101
X-61.811Y-23.641
X-61.811Y-26.181
X-61.811Y-28.721
X-61.811Y-31.261
X-61.811Y-54.921
X-61.811Y-57.461
X-61.811Y-60.001
X-61.811Y-62.541
X-61.811Y-65.081
X-61.811Y-67.621
X-61.811Y-70.161
X-61.811Y-72.701
X-14.171Y-51.171
X-11.631Y-51.171
X-9.091Y-51.171
X-6.551Y-51.171
T5
X-65.756Y-9.001
X-54.261Y-47.226
X-6.006Y-47.226
M30
